<?xml version="1.0" encoding="UTF-8"?>
<svg id="Layer_2" data-name="Layer 2" xmlns="http://www.w3.org/2000/svg" viewBox="0 0 1016.11 164.44">
  <defs>
    <style>
      .cls-1 {
        fill: #1ba8ff;
      }
    </style>
  </defs>
  <g id="svg1">
    <g>
      <g>
        <path class="cls-1" d="M208.53,119.52V23.34h63.27v8.8h-53.51v87.39h-9.76ZM217.24,78.71v-8.79h48.77v8.79h-48.77Z"/>
        <path class="cls-1" d="M285.78,119.52V17.57h9.36v101.96h-9.36Z"/>
        <path class="cls-1" d="M321.76,31.45c-1.93,0-3.56-.69-4.88-2.06-1.32-1.37-1.98-3.02-1.98-4.95s.66-3.55,1.98-4.88c1.31-1.33,2.94-1.99,4.88-1.99s3.56.64,4.88,1.92c1.32,1.28,1.98,2.89,1.98,4.81s-.64,3.71-1.91,5.08c-1.27,1.38-2.92,2.06-4.94,2.06ZM317.02,119.52V47.38h9.36v72.14h-9.36Z"/>
        <path class="cls-1" d="M376.07,116.78c-6.59,0-12.52-1.49-17.79-4.47-5.27-2.98-9.42-7.12-12.46-12.43-3.03-5.32-4.55-11.41-4.55-18.28s1.52-12.94,4.55-18.21,7.18-9.37,12.46-12.3c5.27-2.93,11.2-4.39,17.79-4.39,6.15,0,11.68,1.33,16.61,3.98,4.92,2.66,8.83,6.6,11.73,11.82,2.9,5.22,4.35,11.59,4.35,19.1s-1.45,13.88-4.35,19.1c-2.9,5.22-6.81,9.2-11.73,11.95-4.92,2.75-10.46,4.12-16.61,4.12ZM377.78,146.87c-6.33,0-12.39-.96-18.19-2.89-5.8-1.92-10.5-4.67-14.11-8.24l4.74-7.42c3.25,3.03,7.27,5.43,12.06,7.22,4.79,1.79,9.86,2.68,15.23,2.68,8.79,0,15.24-2.13,19.38-6.39,4.13-4.26,6.2-10.88,6.2-19.85v-18l1.32-12.37-.93-12.37v-21.85h8.97v63.35c0,12.46-2.92,21.59-8.76,27.41-5.84,5.82-14.48,8.73-25.9,8.73ZM376.99,108.12c5.1,0,9.62-1.12,13.58-3.37,3.95-2.24,7.07-5.36,9.36-9.34,2.28-3.99,3.43-8.59,3.43-13.81s-1.14-9.8-3.43-13.74c-2.29-3.94-5.4-7.03-9.36-9.27s-8.48-3.37-13.58-3.37-9.51,1.12-13.51,3.37c-4,2.25-7.12,5.34-9.36,9.27-2.24,3.94-3.36,8.52-3.36,13.74s1.12,9.82,3.36,13.81c2.24,3.99,5.36,7.1,9.36,9.34,4,2.25,8.5,3.37,13.51,3.37Z"/>
        <path class="cls-1" d="M434.33,119.52V17.57h9.36v49.6l-1.84-3.71c2.19-5.22,5.71-9.32,10.54-12.3,4.83-2.98,10.59-4.46,17.27-4.46,5.62,0,10.57,1.12,14.83,3.36,4.26,2.25,7.6,5.66,10.02,10.24,2.41,4.58,3.63,10.35,3.63,17.31v41.91h-9.36v-40.95c0-7.6-1.82-13.35-5.47-17.25-3.64-3.89-8.76-5.84-15.36-5.84-4.92,0-9.2,1.03-12.85,3.09-3.65,2.06-6.46,5.04-8.44,8.93-1.98,3.89-2.97,8.59-2.97,14.08v37.92h-9.36Z"/>
        <path class="cls-1" d="M508.41,55.49v-8.11h42.84v8.11h-42.84ZM541.1,120.21c-6.5,0-11.51-1.83-15.02-5.5-3.52-3.66-5.27-8.84-5.27-15.52V31.45h9.36v67.19c0,4.22,1.03,7.47,3.1,9.76,2.06,2.29,5.03,3.43,8.9,3.43,4.13,0,7.56-1.24,10.28-3.71l3.29,7c-1.84,1.74-4.07,3.02-6.65,3.85-2.6.82-5.25,1.24-7.98,1.24Z"/>
        <path class="cls-1" d="M616.59,120.68c-7.03,0-13.51-1.21-19.44-3.64-5.93-2.43-11.07-5.86-15.42-10.31-4.35-4.44-7.75-9.64-10.21-15.6-2.46-5.95-3.69-12.5-3.69-19.65s1.23-13.7,3.69-19.65c2.46-5.95,5.89-11.15,10.28-15.6,4.39-4.44,9.56-7.88,15.49-10.31,5.93-2.42,12.41-3.64,19.45-3.64s13.68,1.26,19.7,3.78c6.02,2.52,11.14,6.25,15.36,11.2l-8.57,8.66c-3.52-3.85-7.47-6.71-11.87-8.59s-9.09-2.82-14.1-2.82-9.99.92-14.43,2.75c-4.44,1.83-8.29,4.4-11.53,7.7-3.25,3.3-5.78,7.22-7.58,11.75-1.8,4.53-2.7,9.46-2.7,14.77s.9,10.23,2.7,14.77c1.8,4.53,4.33,8.45,7.58,11.74,3.25,3.3,7.09,5.87,11.53,7.7,4.44,1.83,9.25,2.75,14.43,2.75s9.71-.94,14.1-2.82c4.39-1.88,8.35-4.79,11.87-8.73l8.57,8.66c-4.22,4.95-9.34,8.7-15.36,11.27-6.02,2.56-12.63,3.85-19.84,3.85Z"/>
        <path class="cls-1" d="M690.27,120.41c-6.94,0-13.16-1.6-18.65-4.81-5.49-3.21-9.82-7.62-12.98-13.26-3.16-5.63-4.74-12.02-4.74-19.17s1.58-13.63,4.74-19.17c3.16-5.54,7.47-9.91,12.92-13.12,5.45-3.21,11.69-4.81,18.72-4.81s13.16,1.58,18.65,4.74c5.49,3.16,9.8,7.53,12.92,13.12,3.12,5.59,4.68,12,4.68,19.24s-1.56,13.65-4.68,19.24c-3.12,5.59-7.43,9.99-12.92,13.19-5.49,3.21-11.71,4.81-18.65,4.81ZM690.27,108.86c4.48,0,8.5-1.05,12.06-3.16,3.56-2.11,6.35-5.1,8.37-9,2.02-3.89,3.03-8.4,3.03-13.53s-1.01-9.73-3.03-13.54c-2.02-3.8-4.81-6.75-8.37-8.86-3.56-2.11-7.58-3.16-12.06-3.16s-8.48,1.05-11.99,3.16c-3.52,2.11-6.33,5.06-8.44,8.86-2.11,3.8-3.16,8.31-3.16,13.54s1.05,9.64,3.16,13.53c2.11,3.9,4.92,6.9,8.44,9,3.51,2.11,7.51,3.16,11.99,3.16Z"/>
        <path class="cls-1" d="M739.84,119.58V46.76h12.12v19.65l-1.97-5.22c2.28-4.76,5.8-8.47,10.54-11.13,4.74-2.65,10.28-3.98,16.61-3.98,5.71,0,10.74,1.15,15.09,3.43,4.35,2.29,7.76,5.77,10.22,10.44,2.46,4.67,3.69,10.58,3.69,17.72v41.91h-12.65v-40.4c0-7.05-1.65-12.37-4.94-15.94-3.3-3.57-7.93-5.36-13.91-5.36-4.48,0-8.39.92-11.73,2.75-3.34,1.83-5.91,4.53-7.71,8.1-1.8,3.57-2.7,8.02-2.7,13.33v37.51h-12.65Z"/>
        <path class="cls-1" d="M815.36,57.61v-10.86h44.55v10.86h-44.55ZM849.37,120.41c-7.03,0-12.48-1.97-16.35-5.91-3.86-3.94-5.8-9.57-5.8-16.9V30.82h12.65v66.23c0,3.94.95,6.96,2.84,9.07,1.89,2.11,4.59,3.16,8.1,3.16,3.96,0,7.25-1.14,9.89-3.43l3.95,9.48c-1.93,1.74-4.24,3.02-6.92,3.85s-5.47,1.24-8.37,1.24Z"/>
        <path class="cls-1" d="M875.73,119.58V46.76h12.12v19.78l-1.18-4.95c1.93-5.03,5.18-8.89,9.75-11.54,4.57-2.65,10.2-3.98,16.87-3.98v12.78c-.52-.09-1.03-.14-1.52-.14h-1.38c-6.77,0-12.12,2.11-16.08,6.32-3.96,4.22-5.93,10.31-5.93,18.28v36.28h-12.65Z"/>
        <path class="cls-1" d="M953.89,120.41c-6.94,0-13.16-1.6-18.65-4.81-5.49-3.21-9.82-7.62-12.98-13.26-3.16-5.63-4.74-12.02-4.74-19.17s1.58-13.63,4.74-19.17c3.16-5.54,7.47-9.91,12.92-13.12,5.45-3.21,11.69-4.81,18.72-4.81s13.16,1.58,18.65,4.74c5.49,3.16,9.8,7.53,12.92,13.12,3.12,5.59,4.68,12,4.68,19.24s-1.56,13.65-4.68,19.24c-3.12,5.59-7.43,9.99-12.92,13.19-5.49,3.21-11.71,4.81-18.65,4.81ZM953.89,108.86c4.48,0,8.5-1.05,12.06-3.16,3.56-2.11,6.35-5.1,8.37-9,2.02-3.89,3.03-8.4,3.03-13.53s-1.01-9.73-3.03-13.54c-2.02-3.8-4.81-6.75-8.37-8.86-3.56-2.11-7.58-3.16-12.06-3.16s-8.48,1.05-11.99,3.16c-3.52,2.11-6.33,5.06-8.44,8.86-2.11,3.8-3.16,8.31-3.16,13.54s1.05,9.64,3.16,13.53c2.11,3.9,4.92,6.9,8.44,9,3.51,2.11,7.51,3.16,11.99,3.16Z"/>
        <path class="cls-1" d="M1003.45,119.58V17.63h12.65v101.96h-12.65Z"/>
      </g>
      <g>
        <path class="cls-1" d="M123.6,137.04l21.05-42.44c.9-1.82.81-3.74-.25-4.95-1.06-1.21-2.89-1.51-4.75-.75l-42.96,17.35c-2.14.86-3.83,2.92-4.17,5.08-.34,2.16.74,3.91,2.68,4.32l13.74,2.92c.07.02.15,0,.2-.05l17.62-14.42c1.42-1.16,3.2.87,1.94,2.21l-15.69,16.64c-.05.05-.08.13-.07.2l1.45,14.49c.2,2.03,1.78,3.32,3.9,3.18.04,0,.07,0,.11,0,2.08-.18,4.18-1.7,5.21-3.77Z"/>
        <path class="cls-1" d="M47.49,119.31c-.61,0-1.24-.17-1.79-.53-1.59-1.03-2.08-3.19-1.09-4.83,1.12-1.85,2.42-3.89,3.88-6.03,1.08-1.58,3.21-1.96,4.74-.83,1.53,1.12,1.89,3.31.81,4.89-1.38,2.01-2.61,3.94-3.66,5.68-.64,1.07-1.75,1.66-2.89,1.66ZM57.58,105.16c-.8,0-1.59-.28-2.24-.87-1.41-1.28-1.55-3.49-.32-4.95,1.6-1.89,3.25-3.68,4.89-5.31,1.35-1.34,3.5-1.3,4.81.1,1.3,1.4,1.26,3.62-.09,4.96-1.51,1.49-3.02,3.13-4.49,4.87-.67.79-1.61,1.2-2.56,1.2ZM70.16,93.41c-1.09,0-2.16-.54-2.82-1.54-1.05-1.61-.65-3.79.91-4.88,2.09-1.46,4.23-2.73,6.35-3.76,1.7-.84,3.73-.08,4.53,1.68.8,1.76.07,3.85-1.62,4.67-1.8.88-3.63,1.96-5.43,3.22-.58.41-1.25.6-1.91.6ZM85.75,86.88c-1.67,0-3.12-1.27-3.36-3.02-.26-1.92,1.03-3.7,2.89-3.97.55-.08,1.12-.14,1.69-.19,1.61-.13,3.2-.39,4.75-.75,1.83-.42,3.65.76,4.07,2.65.42,1.89-.73,3.77-2.57,4.2-1.86.44-3.78.74-5.69.9-.43.04-.87.09-1.3.15-.16.02-.32.03-.48.03ZM101.98,82.19c-1.21,0-2.38-.67-2.99-1.84-.89-1.71-.28-3.84,1.37-4.76,1.79-1,3.55-2.18,5.23-3.52,1.5-1.18,3.63-.89,4.77.63,1.15,1.54.87,3.74-.61,4.93-1.97,1.57-4.04,2.96-6.15,4.14-.51.29-1.07.42-1.61.42ZM115.03,71.09c-.79,0-1.57-.28-2.21-.85-1.42-1.27-1.59-3.48-.37-4.95,1.36-1.63,2.67-3.4,3.9-5.27,1.06-1.6,3.17-2.03,4.72-.93,1.55,1.09,1.96,3.27.9,4.87-1.37,2.08-2.84,4.07-4.36,5.89-.67.81-1.62,1.22-2.58,1.22ZM124.27,56.38c-.5,0-1.01-.11-1.49-.36-1.69-.85-2.39-2.95-1.56-4.69,1.68-3.56,2.48-6.02,2.48-6.05.59-1.84,2.51-2.85,4.29-2.24,1.78.61,2.75,2.58,2.17,4.43-.04.12-.93,2.91-2.84,6.94-.59,1.25-1.8,1.97-3.06,1.97Z"/>
        <path class="cls-1" d="M61.47,164.44c-.7,0-1.41-.23-2.02-.69-1.51-1.16-1.82-3.36-.71-4.91,1.49-2.07,3.06-4,4.66-5.72,1.3-1.4,3.45-1.45,4.8-.11,1.36,1.34,1.4,3.56.1,4.96-1.4,1.51-2.78,3.21-4.1,5.05-.67.93-1.7,1.42-2.74,1.42ZM73.78,152.46c-1.18,0-2.32-.63-2.95-1.77-.94-1.68-.37-3.83,1.26-4.79,2.38-1.41,4.83-2.41,7.26-2.95,1.83-.41,3.65.79,4.04,2.69.4,1.9-.77,3.76-2.6,4.18-1.75.39-3.55,1.12-5.33,2.18-.53.32-1.11.47-1.69.47ZM89.96,147.6c-1.3,0-2.55-.77-3.11-2.08-.77-1.77,0-3.85,1.72-4.64,1.73-.8,3.39-1.88,4.94-3.21,1.45-1.25,3.59-1.05,4.79.44,1.21,1.49,1.02,3.7-.42,4.94-2.03,1.76-4.23,3.18-6.53,4.24-.45.21-.92.31-1.38.31ZM102.3,135.9c-.62,0-1.24-.17-1.8-.53-1.59-1.03-2.08-3.2-1.08-4.84,1.87-3.08,2.73-5.56,2.74-5.59.63-1.82,2.57-2.79,4.34-2.14,1.77.64,2.7,2.64,2.08,4.47-.04.13-1.1,3.2-3.39,6.98-.64,1.07-1.75,1.65-2.89,1.65Z"/>
        <path class="cls-1" d="M3.4,99.9c-.62,0-1.26-.18-1.82-.55-1.59-1.04-2.06-3.21-1.05-4.84,1.29-2.1,2.66-4.13,4.06-6.02,1.15-1.54,3.28-1.83,4.76-.65,1.49,1.18,1.78,3.38.63,4.92-1.28,1.73-2.53,3.59-3.73,5.52-.65,1.05-1.75,1.63-2.87,1.63ZM14.13,86.32c-.92,0-1.83-.38-2.5-1.13-1.27-1.43-1.18-3.65.2-4.96,1.92-1.82,3.87-3.39,5.82-4.68,1.58-1.05,3.68-.58,4.7,1.06,1.01,1.63.55,3.8-1.03,4.85-1.62,1.07-3.27,2.4-4.89,3.94-.65.62-1.48.93-2.3.93ZM28.87,78.07c-1.64,0-3.08-1.22-3.35-2.94-.3-1.92.95-3.72,2.81-4.04.68-.11,1.35-.2,2.04-.26,1.46-.13,2.9-.39,4.28-.8,1.81-.53,3.69.55,4.2,2.42.51,1.87-.54,3.81-2.34,4.33-1.81.53-3.68.88-5.57,1.04-.5.04-1,.11-1.5.2-.19.03-.37.04-.55.04ZM44.61,72.2c-1.03,0-2.04-.48-2.71-1.39-1.14-1.54-.85-3.74.65-4.92,1.55-1.22,3.06-2.68,4.47-4.33,1.25-1.45,3.4-1.59,4.8-.31,1.41,1.28,1.54,3.5.3,4.96-1.7,1.99-3.54,3.76-5.45,5.27-.61.48-1.34.72-2.06.72ZM55.34,58.74c-.54,0-1.1-.14-1.61-.42-1.65-.92-2.27-3.05-1.37-4.76,1.74-3.32,2.55-5.82,2.56-5.85.59-1.84,2.5-2.85,4.29-2.23,1.78.61,2.75,2.58,2.16,4.42-.04.13-.99,3.08-3.04,6.99-.62,1.18-1.79,1.84-2.99,1.84Z"/>
        <path class="cls-1" d="M147.71,61.36l26.6-53.63c1.14-2.3,1.02-4.72-.32-6.25-1.34-1.53-3.66-1.91-6-.95l-54.29,21.93c-2.7,1.09-4.84,3.69-5.27,6.42-.43,2.72.94,4.94,3.39,5.46l17.36,3.69c.09.02.18,0,.26-.06l22.27-18.23c1.79-1.47,4.04,1.11,2.45,2.8l-19.83,21.02c-.06.07-.1.16-.09.26l1.84,18.31c.26,2.56,2.25,4.19,4.93,4.02.05,0,.09,0,.14-.01,2.63-.23,5.28-2.14,6.58-4.76Z"/>
        <path class="cls-1" d="M76.61,60.71l22.52-45.42c.97-1.95.86-4-.27-5.29-1.13-1.29-3.1-1.61-5.08-.81l-45.98,18.57c-2.29.92-4.1,3.13-4.47,5.44-.37,2.31.8,4.18,2.87,4.62l14.7,3.12c.08.02.16,0,.22-.05l18.86-15.43c1.52-1.24,3.42.94,2.07,2.37l-16.79,17.8c-.05.06-.08.14-.07.22l1.56,15.5c.22,2.17,1.91,3.55,4.17,3.41.04,0,.08,0,.12-.01,2.23-.19,4.47-1.81,5.57-4.03Z"/>
      </g>
    </g>
  </g>
</svg>